<?xml version="1.0" standalone="no"?><!DOCTYPE svg PUBLIC "-//W3C//DTD SVG 1.1//EN" "http://www.w3.org/Graphics/SVG/1.1/DTD/svg11.dtd"><svg width="100%" height="100%" style="background-color:#000000;" version="1.1" xmlns="http://www.w3.org/2000/svg">
<polygon points="0,0 459,0 459,459 0,459" style="fill:#000000;stroke:#000000;stroke-width:0;fill-opacity:1;"/>
<polygon points="4,0 459,1 279,339" style="fill:#cbbda5;stroke:#000000;stroke-width:0;fill-opacity:0.64;"/>
<polygon points="1,0 309,133 0,352" style="fill:#57595f;stroke:#000000;stroke-width:0;fill-opacity:0.97;"/>
<polygon points="0,0 0,459 429,459" style="fill:#b8aa88;stroke:#000000;stroke-width:0;fill-opacity:0.14;"/>
<polygon points="274,103 4,127 13,280" style="fill:#1e1812;stroke:#000000;stroke-width:0;fill-opacity:0.83;"/>
<polygon points="261,48 206,155 282,308" style="fill:#b5987b;stroke:#000000;stroke-width:0;fill-opacity:0.72;"/>
<polygon points="459,194 412,236 459,317" style="fill:#f2a453;stroke:#000000;stroke-width:0;fill-opacity:0.73;"/>
<polygon points="298,12 0,34 20,113" style="fill:#f7fffa;stroke:#000000;stroke-width:0;fill-opacity:0.85;"/>
<polygon points="459,0 248,306 459,344" style="fill:#b3a59b;stroke:#000000;stroke-width:0;fill-opacity:0.36;"/>
<polygon points="269,0 451,100 147,372" style="fill:#f979ee;stroke:#000000;stroke-width:0;fill-opacity:0.03;"/>
<polygon points="161,25 430,68 271,342" style="fill:#ffc1a8;stroke:#000000;stroke-width:0;fill-opacity:0.40;"/>
<polygon points="403,55 163,155 291,328" style="fill:#e6734b;stroke:#000000;stroke-width:0;fill-opacity:0.29;"/>
<polygon points="73,283 459,311 459,459" style="fill:#9c9a95;stroke:#000000;stroke-width:0;fill-opacity:0.08;"/>
<polygon points="246,0 0,142 171,233" style="fill:#cbc8c1;stroke:#000000;stroke-width:0;fill-opacity:0.12;"/>
<polygon points="64,274 319,367 104,457" style="fill:#272f22;stroke:#000000;stroke-width:0;fill-opacity:0.02;"/>
<polygon points="295,377 309,441 413,459" style="fill:#626b71;stroke:#000000;stroke-width:0;fill-opacity:0.31;"/>
<polygon points="190,141 38,222 326,403" style="fill:#181715;stroke:#000000;stroke-width:0;fill-opacity:0.99;"/>
<polygon points="162,225 159,254 212,286" style="fill:#b6c4f9;stroke:#000000;stroke-width:0;fill-opacity:0.18;"/>
<polygon points="263,18 204,87 217,128" style="fill:#3a3f3a;stroke:#000000;stroke-width:0;fill-opacity:0.54;"/>
<polygon points="298,10 240,17 201,79" style="fill:#6d675d;stroke:#000000;stroke-width:0;fill-opacity:0.84;"/>
<polygon points="346,0 459,4 459,118" style="fill:#ebf0eb;stroke:#000000;stroke-width:0;fill-opacity:0.86;"/>
<polygon points="388,70 352,95 370,181" style="fill:#fed2ba;stroke:#000000;stroke-width:0;fill-opacity:0.82;"/>
<polygon points="408,346 350,351 398,459" style="fill:#c2c5ce;stroke:#000000;stroke-width:0;fill-opacity:0.29;"/>
<polygon points="375,15 385,103 459,113" style="fill:#8e8d8c;stroke:#000000;stroke-width:0;fill-opacity:0.64;"/>
<polygon points="435,169 289,357 395,459" style="fill:#6c6e7b;stroke:#000000;stroke-width:0;fill-opacity:0.29;"/>
<polygon points="115,236 171,262 95,290" style="fill:#b2b5dc;stroke:#000000;stroke-width:0;fill-opacity:0.18;"/>
<polygon points="62,247 149,254 133,297" style="fill:#616172;stroke:#000000;stroke-width:0;fill-opacity:0.58;"/>
<polygon points="125,41 168,52 166,114" style="fill:#7e828a;stroke:#000000;stroke-width:0;fill-opacity:0.99;"/>
<polygon points="126,42 168,97 18,104" style="fill:#98a0ad;stroke:#000000;stroke-width:0;fill-opacity:0.87;"/>
<polygon points="322,0 459,127 329,167" style="fill:#677b77;stroke:#000000;stroke-width:0;fill-opacity:0.21;"/>
<polygon points="7,9 71,92 26,135" style="fill:#6a6a63;stroke:#000000;stroke-width:0;fill-opacity:0.70;"/>
<polygon points="459,31 459,197 446,201" style="fill:#bdc2b9;stroke:#000000;stroke-width:0;fill-opacity:0.28;"/>
<polygon points="421,41 297,53 322,91" style="fill:#681800;stroke:#000000;stroke-width:0;fill-opacity:0.17;"/>
<polygon points="219,254 334,279 277,296" style="fill:#0d1012;stroke:#000000;stroke-width:0;fill-opacity:0.97;"/>
<polygon points="0,28 193,115 51,150" style="fill:#777778;stroke:#000000;stroke-width:0;fill-opacity:0.35;"/>
<polygon points="144,50 181,68 199,138" style="fill:#625f60;stroke:#000000;stroke-width:0;fill-opacity:0.73;"/>
<polygon points="5,28 116,54 69,94" style="fill:#b3bfcd;stroke:#000000;stroke-width:0;fill-opacity:0.55;"/>
<polygon points="11,32 312,203 364,419" style="fill:#3f2d03;stroke:#000000;stroke-width:0;fill-opacity:0.08;"/>
<polygon points="369,47 327,190 86,196" style="fill:#f7d7d1;stroke:#000000;stroke-width:0;fill-opacity:0.07;"/>
<polygon points="371,281 432,307 423,323" style="fill:#1e1c1e;stroke:#000000;stroke-width:0;fill-opacity:0.92;"/>
<polygon points="294,153 103,169 337,425" style="fill:#4a0633;stroke:#000000;stroke-width:0;fill-opacity:0.05;"/>
<polygon points="313,258 392,304 124,348" style="fill:#141212;stroke:#000000;stroke-width:0;fill-opacity:0.56;"/>
<polygon points="228,273 302,303 270,308" style="fill:#e1feff;stroke:#000000;stroke-width:0;fill-opacity:0.13;"/>
<polygon points="286,5 161,119 121,343" style="fill:#0c0c12;stroke:#000000;stroke-width:0;fill-opacity:0.17;"/>
<polygon points="426,197 411,300 459,327" style="fill:#6d7280;stroke:#000000;stroke-width:0;fill-opacity:0.73;"/>
<polygon points="459,163 459,202 434,204" style="fill:#ebd5b4;stroke:#000000;stroke-width:0;fill-opacity:0.66;"/>
<polygon points="348,209 338,275 296,275" style="fill:#12100f;stroke:#000000;stroke-width:0;fill-opacity:0.88;"/>
<polygon points="0,432 0,458 14,459" style="fill:#ffdaa5;stroke:#000000;stroke-width:0;fill-opacity:0.61;"/>
<polygon points="360,290 321,315 391,328" style="fill:#b9b6d1;stroke:#000000;stroke-width:0;fill-opacity:0.41;"/>
<polygon points="0,298 43,315 66,359" style="fill:#d7e1ed;stroke:#000000;stroke-width:0;fill-opacity:0.47;"/>
<polygon points="17,330 0,367 18,369" style="fill:#9ab8cc;stroke:#000000;stroke-width:0;fill-opacity:0.20;"/>
<polygon points="14,419 0,428 15,459" style="fill:#c3a57d;stroke:#000000;stroke-width:0;fill-opacity:0.77;"/>
<polygon points="0,282 56,301 0,325" style="fill:#acb0b6;stroke:#000000;stroke-width:0;fill-opacity:0.84;"/>
<polygon points="190,327 215,357 175,357" style="fill:#837b89;stroke:#000000;stroke-width:0;fill-opacity:0.22;"/>
<polygon points="252,93 443,142 254,155" style="fill:#351b0e;stroke:#000000;stroke-width:0;fill-opacity:0.23;"/>
<polygon points="365,0 459,1 459,51" style="fill:#a3a08d;stroke:#000000;stroke-width:0;fill-opacity:1.00;"/>
<polygon points="459,38 442,58 459,86" style="fill:#4f402c;stroke:#000000;stroke-width:0;fill-opacity:0.41;"/>
<polygon points="459,341 432,342 459,393" style="fill:#989aa8;stroke:#000000;stroke-width:0;fill-opacity:0.22;"/>
<polygon points="208,305 221,328 178,359" style="fill:#bfafde;stroke:#000000;stroke-width:0;fill-opacity:0.12;"/>
<polygon points="299,80 309,231 135,322" style="fill:#4f1c0e;stroke:#000000;stroke-width:0;fill-opacity:0.09;"/>
<polygon points="78,327 0,338 71,363" style="fill:#555b69;stroke:#000000;stroke-width:0;fill-opacity:0.47;"/>
<polygon points="401,8 459,17 444,60" style="fill:#453d35;stroke:#000000;stroke-width:0;fill-opacity:0.25;"/>
<polygon points="135,259 219,361 290,365" style="fill:#efd9e8;stroke:#000000;stroke-width:0;fill-opacity:0.10;"/>
<polygon points="192,197 25,309 345,430" style="fill:#56465a;stroke:#000000;stroke-width:0;fill-opacity:0.10;"/>
<polygon points="380,292 412,317 371,321" style="fill:#787786;stroke:#000000;stroke-width:0;fill-opacity:0.53;"/>
</svg>
